<?xml version="1.0" encoding="UTF-8"?>
<svg version="1.1" xmlns="http://www.w3.org/2000/svg" width="250" height="87">
<path d="M0 0 C1.65 0 3.3 0 5 0 C5.66 3.63 6.32 7.26 7 11 C9.60608273 8.4837822 11.89381685 5.94865641 14 3 C18.66154042 4.49835228 19.86610751 7.88463591 22 12 C22.99 8.04 23.98 4.08 25 0 C26.65 0 28.3 0 30 0 C29.01701938 7.44555532 28.02712214 14.76027807 26 22 C24.68 22 23.36 22 22 22 C20.296875 20.1015625 20.296875 20.1015625 18.75 17.625 C18.22921875 16.81289062 17.7084375 16.00078125 17.171875 15.1640625 C16 13 16 13 16 11 C13.49280542 13.32649587 11.67816399 15.82681521 9.8125 18.6875 C9.01779297 19.89986328 9.01779297 19.89986328 8.20703125 21.13671875 C7.60955078 22.05904297 7.60955078 22.05904297 7 23 C5.109375 22.5234375 5.109375 22.5234375 3 21 C2.2046064 18.13302157 1.66256056 15.54689952 1.25 12.625 C1.12496094 11.85671875 0.99992187 11.0884375 0.87109375 10.296875 C0.3174265 6.78017533 0 3.58118082 0 0 Z " fill="#000000" transform="translate(61,51)"/>
<path d="M0 0 C3.29159316 -0.05790353 6.58305603 -0.09356261 9.875 -0.125 C10.81214844 -0.14175781 11.74929687 -0.15851562 12.71484375 -0.17578125 C13.61074219 -0.18222656 14.50664062 -0.18867187 15.4296875 -0.1953125 C16.25710449 -0.20578613 17.08452148 -0.21625977 17.93701172 -0.22705078 C20 0 20 0 22 2 C22.57028991 5.05555333 22.54304084 7.94210014 22 11 C19.5 14.0625 19.5 14.0625 17 16 C17.99 16.78375 18.98 17.5675 20 18.375 C20.99 19.24125 21.98 20.1075 23 21 C23 21.66 23 22.32 23 23 C20.5 23.4375 20.5 23.4375 17 23 C14.79640047 21.35363254 12.87977845 19.56724967 10.9296875 17.62890625 C8.90444569 15.91933978 7.58634841 15.4080683 5 15 C5 13.35 5 11.7 5 10 C8.96 10 12.92 10 17 10 C17 8.35 17 6.7 17 5 C12.71 4.67 8.42 4.34 4 4 C4 10.27 4 16.54 4 23 C2.35 22.67 0.7 22.34 -1 22 C-1.02895225 18.70835171 -1.0467823 15.41673601 -1.0625 12.125 C-1.07506836 10.71927734 -1.07506836 10.71927734 -1.08789062 9.28515625 C-1.09111328 8.38925781 -1.09433594 7.49335937 -1.09765625 6.5703125 C-1.10289307 5.74289551 -1.10812988 4.91547852 -1.11352539 4.06298828 C-1 2 -1 2 0 0 Z " fill="#000000" transform="translate(189,51)"/>
<path d="M0 0 C0.80244141 0.00966797 1.60488281 0.01933594 2.43164062 0.02929688 C3.26501953 0.05443359 4.09839844 0.07957031 4.95703125 0.10546875 C6.22450195 0.12577148 6.22450195 0.12577148 7.51757812 0.14648438 C9.60183509 0.18181076 11.68576402 0.23561736 13.76953125 0.29296875 C13.76953125 1.61296875 13.76953125 2.93296875 13.76953125 4.29296875 C8.81953125 4.62296875 3.86953125 4.95296875 -1.23046875 5.29296875 C-1.23046875 6.28296875 -1.23046875 7.27296875 -1.23046875 8.29296875 C-0.32683594 8.34195313 0.57679688 8.3909375 1.5078125 8.44140625 C2.68730469 8.51617187 3.86679688 8.5909375 5.08203125 8.66796875 C6.25378906 8.73757812 7.42554688 8.8071875 8.6328125 8.87890625 C11.76953125 9.29296875 11.76953125 9.29296875 14.76953125 11.29296875 C15.63385032 14.35132852 16.00059362 16.46114423 15.14453125 19.54296875 C13.23949484 21.96756055 11.72933578 22.38650398 8.76953125 23.29296875 C5.9595918 23.43057597 3.25951201 23.48308448 0.45703125 23.41796875 C-0.28353516 23.40894531 -1.02410156 23.39992188 -1.78710938 23.390625 C-3.60170342 23.36721088 -5.41612946 23.3313449 -7.23046875 23.29296875 C-7.23046875 21.64296875 -7.23046875 19.99296875 -7.23046875 18.29296875 C-1.29046875 17.96296875 4.64953125 17.63296875 10.76953125 17.29296875 C10.76953125 16.30296875 10.76953125 15.31296875 10.76953125 14.29296875 C9.8053125 14.25558594 8.84109375 14.21820313 7.84765625 14.1796875 C5.95273438 14.08107422 5.95273438 14.08107422 4.01953125 13.98046875 C2.14007813 13.89345703 2.14007813 13.89345703 0.22265625 13.8046875 C-3.28564178 13.28479266 -4.82329441 12.85544466 -7.23046875 10.29296875 C-7.97941909 4.30136603 -7.97941909 4.30136603 -5.9675293 1.5925293 C-3.8041857 -0.02594969 -2.67825252 -0.0569841 0 0 Z " fill="#000000" transform="translate(221.23046875,50.70703125)"/>
<path d="M0 0 C4.32504836 1.65863505 7.09418825 4.871041 10.25 8.125 C11.08144531 8.96998047 11.08144531 8.96998047 11.9296875 9.83203125 C13.29104485 11.21686028 14.64614859 12.60783204 16 14 C16.33 9.38 16.66 4.76 17 0 C19.475 0.495 19.475 0.495 22 1 C22.0580476 4.27075883 22.09361165 7.54138524 22.125 10.8125 C22.14175781 11.74126953 22.15851563 12.67003906 22.17578125 13.62695312 C22.18222656 14.51962891 22.18867188 15.41230469 22.1953125 16.33203125 C22.20578613 17.15421143 22.21625977 17.9763916 22.22705078 18.82348633 C22 21 22 21 20 24 C15.67495164 22.34136495 12.90581175 19.128959 9.75 15.875 C9.19570312 15.31167969 8.64140625 14.74835937 8.0703125 14.16796875 C6.70895515 12.78313972 5.35385141 11.39216796 4 10 C3.67 14.29 3.34 18.58 3 23 C1.68 23 0.36 23 -1 23 C-1.02887512 19.35418313 -1.04675585 15.70839537 -1.0625 12.0625 C-1.07087891 11.02158203 -1.07925781 9.98066406 -1.08789062 8.90820312 C-1.09272461 7.42416992 -1.09272461 7.42416992 -1.09765625 5.91015625 C-1.10289307 4.99371338 -1.10812988 4.07727051 -1.11352539 3.13305664 C-1 1 -1 1 0 0 Z " fill="#000000" transform="translate(115,12)"/>
<path d="M0 0 C6.93 0 13.86 0 21 0 C21 1.32 21 2.64 21 4 C15.72 4 10.44 4 5 4 C5 8.62 5 13.24 5 18 C10.28 18 15.56 18 21 18 C21 19.65 21 21.3 21 23 C18.60385874 23.05425226 16.20896147 23.09379027 13.8125 23.125 C12.80219727 23.15013672 12.80219727 23.15013672 11.77148438 23.17578125 C7.73251022 23.21518588 4.58140152 22.92896579 1 21 C-0.17426264 18.65147472 -0.11508173 17.26225935 -0.09765625 14.6484375 C-0.09515869 13.88192871 -0.09266113 13.11541992 -0.09008789 12.32568359 C-0.07643188 10.86509521 -0.07643188 10.86509521 -0.0625 9.375 C-0.041875 6.28125 -0.02125 3.1875 0 0 Z " fill="#000000" transform="translate(38,51)"/>
<path d="M0 0 C0.83265381 0.00523682 1.66530762 0.01047363 2.52319336 0.01586914 C3.42231445 0.0190918 4.32143555 0.02231445 5.24780273 0.02563477 C6.66609375 0.03820313 6.66609375 0.03820313 8.11303711 0.05102539 C9.06243164 0.05553711 10.01182617 0.06004883 10.98999023 0.06469727 C13.34356776 0.07652429 15.69702188 0.09300514 18.05053711 0.11352539 C18.05053711 1.43352539 18.05053711 2.75352539 18.05053711 4.11352539 C12.77053711 4.11352539 7.49053711 4.11352539 2.05053711 4.11352539 C2.38053711 8.40352539 2.71053711 12.69352539 3.05053711 17.11352539 C8.00053711 17.44352539 12.95053711 17.77352539 18.05053711 18.11352539 C18.05053711 19.76352539 18.05053711 21.41352539 18.05053711 23.11352539 C15.65401183 23.19491682 13.26028275 23.25419548 10.86303711 23.30102539 C10.18950195 23.32616211 9.5159668 23.35129883 8.82202148 23.37719727 C4.36674493 23.44239643 1.54339526 22.93543904 -1.94946289 20.11352539 C-3.19620623 16.37329537 -3.09499044 12.88191679 -3.07446289 8.98852539 C-3.07833008 8.24731445 -3.08219727 7.50610352 -3.08618164 6.74243164 C-3.07418272 0.17902254 -3.07418272 0.17902254 0 0 Z " fill="#000000" transform="translate(166.949462890625,50.886474609375)"/>
<path d="M0 0 C6.93 0 13.86 0 21 0 C21 1.32 21 2.64 21 4 C15.39 4 9.78 4 4 4 C4.33 8.62 4.66 13.24 5 18 C10.28 18 15.56 18 21 18 C20.67 19.65 20.34 21.3 20 23 C17.79229195 23.08165496 15.58369575 23.13948488 13.375 23.1875 C11.53035156 23.23970703 11.53035156 23.23970703 9.6484375 23.29296875 C6 23 6 23 0 20 C0 13.4 0 6.8 0 0 Z " fill="#000000" transform="translate(94,51)"/>
<path d="M0 0 C1.65 0 3.3 0 5 0 C5 5.94 5 11.88 5 18 C10.28 18 15.56 18 21 18 C21 19.65 21 21.3 21 23 C17.87501937 23.02895976 14.7500731 23.04678483 11.625 23.0625 C10.73554688 23.07087891 9.84609375 23.07925781 8.9296875 23.08789062 C7.65351562 23.09272461 7.65351562 23.09272461 6.3515625 23.09765625 C5.17327881 23.10551147 5.17327881 23.10551147 3.97119141 23.11352539 C2 23 2 23 0 22 C0 14.74 0 7.48 0 0 Z " fill="#000000" transform="translate(118,51)"/>
<path d="M0 0 C1.65 0 3.3 0 5 0 C5 5.94 5 11.88 5 18 C10.28 18 15.56 18 21 18 C21 19.65 21 21.3 21 23 C18.06225537 23.05390357 15.12549768 23.0936255 12.1875 23.125 C11.35412109 23.14175781 10.52074219 23.15851563 9.66210938 23.17578125 C8.85966797 23.18222656 8.05722656 23.18867187 7.23046875 23.1953125 C6.12288208 23.21102295 6.12288208 23.21102295 4.99291992 23.22705078 C3 23 3 23 0 21 C-0.34057617 18.84521484 -0.34057617 18.84521484 -0.29296875 16.2109375 C-0.2784668 14.79941406 -0.2784668 14.79941406 -0.26367188 13.359375 C-0.23853516 12.37453125 -0.21339844 11.3896875 -0.1875 10.375 C-0.17396484 9.38242187 -0.16042969 8.38984375 -0.14648438 7.3671875 C-0.11105743 4.91091928 -0.06166196 2.45572715 0 0 Z " fill="#000000" transform="translate(141,51)"/>
<path d="M0 0 C1.65 0 3.3 0 5 0 C5.08710289 3.10398978 5.14042309 6.20766548 5.1875 9.3125 C5.21263672 10.19357422 5.23777344 11.07464844 5.26367188 11.98242188 C5.27333984 12.82998047 5.28300781 13.67753906 5.29296875 14.55078125 C5.3086792 15.33106689 5.32438965 16.11135254 5.34057617 16.9152832 C4.9087812 19.55836367 4.09972731 20.38428179 2 22 C-1.61867559 23.2062252 -4.92506251 23.10816918 -8.6875 23.0625 C-9.38939453 23.05798828 -10.09128906 23.05347656 -10.81445312 23.04882812 C-12.54300538 23.03706927 -14.27151365 23.01913454 -16 23 C-16 21.35 -16 19.7 -16 18 C-10.72 18 -5.44 18 0 18 C0 12.06 0 6.12 0 0 Z " fill="#000000" transform="translate(29,51)"/>
<path d="M0 0 C4.62 0 9.24 0 14 0 C14 1.32 14 2.64 14 4 C9.38 4 4.76 4 0 4 C0 2.68 0 1.36 0 0 Z " fill="#000000" transform="translate(99,60)"/>
<path d="M0 0 C4.29 0 8.58 0 13 0 C13 1.32 13 2.64 13 4 C8.71 4 4.42 4 0 4 C0 2.68 0 1.36 0 0 Z " fill="#000000" transform="translate(170,60)"/>
<path d="M0 0 C4.29 0 8.58 0 13 0 C13 1.32 13 2.64 13 4 C8.71 4 4.42 4 0 4 C0 2.68 0 1.36 0 0 Z " fill="#000000" transform="translate(44,60)"/>
</svg>
